<?xml version="1.0" standalone="no"?>
<!DOCTYPE svg PUBLIC "-//W3C//DTD SVG 20010904//EN"
 "http://www.w3.org/TR/2001/REC-SVG-20010904/DTD/svg10.dtd">
<svg version="1.0" xmlns="http://www.w3.org/2000/svg"
 width="1836.000000pt" height="1836.000000pt" viewBox="0 0 1836.000000 1836.000000"
 preserveAspectRatio="xMidYMid meet">
<metadata>
Created by potrace 1.14, written by Peter Selinger 2001-2017
</metadata>
<g transform="translate(0.000000,1836.000000) scale(0.100000,-0.100000)"
fill="#000000" stroke="none">
<path d="M9993 11840 l-3182 -5 -3397 -2665 -3398 -2665 5761 -3 5762 -2 2973
2332 c1635 1282 3160 2478 3388 2656 228 179 424 333 435 343 22 21 -440 21
-8342 9z m3125 -29 c-1 -5 -914 -724 -2028 -1597 -1114 -874 -2626 -2060
-3360 -2636 l-1335 -1047 -3150 -1 c-2721 0 -3147 2 -3135 14 8 8 1525 1198
3370 2645 l3354 2631 3144 0 c1864 0 3142 -4 3140 -9z m217 -2081 c187 -37
276 -113 275 -235 -1 -113 -125 -284 -324 -448 l-70 -57 -313 0 c-172 0 -313
2 -313 4 0 2 30 33 66 68 67 64 114 138 114 180 0 31 -24 64 -63 86 -46 25
-298 24 -417 -1 -283 -60 -610 -231 -712 -371 -73 -101 -7 -153 299 -235 247
-66 352 -118 404 -200 66 -103 26 -206 -145 -376 -421 -417 -1193 -763 -1896
-849 -340 -41 -643 -22 -781 49 -46 24 -99 75 -120 116 -65 129 45 336 290
546 l74 63 311 0 311 0 -61 -58 c-187 -178 -185 -282 7 -323 76 -17 340 -5
454 19 257 55 503 179 652 327 70 70 87 117 59 159 -24 38 -127 82 -296 127
-238 62 -345 115 -400 196 -37 54 -35 138 4 215 101 199 519 504 956 696 614
271 1226 384 1635 302z"/>
<path d="M7434 11202 l-110 -3 -2290 -1795 c-1259 -988 -2302 -1807 -2319
-1820 l-30 -24 380 0 380 1 859 674 860 675 500 0 c673 0 882 16 1252 96 894
191 1851 690 2472 1289 150 144 249 269 304 384 36 74 42 96 46 166 3 72 1 85
-25 135 -70 137 -247 202 -603 220 -156 9 -1390 10 -1676 2z m1076 -522 c88
-14 168 -55 192 -100 75 -138 -154 -407 -595 -701 -339 -225 -726 -380 -1087
-435 -128 -19 -651 -29 -971 -17 l-216 8 800 628 800 627 506 0 c292 0 534 -4
571 -10z"/>
</g>
</svg>
